<svg width="16" height="13" viewBox="0 0 16 13" fill="none" xmlns="http://www.w3.org/2000/svg">
<path d="M15.125 6.20987C15.125 5.86182 14.8664 5.57417 14.5308 5.52865L14.4375 5.52237L2.35217 5.52292L6.71824 1.17469C6.9873 0.906781 6.98824 0.471481 6.72033 0.202418C6.47678 -0.0421846 6.09489 -0.0651956 5.82531 0.133924L5.74806 0.200325L0.202228 5.72233C0.166761 5.75764 0.135956 5.79586 0.109811 5.83622C0.102427 5.84837 0.0949098 5.8608 0.0877832 5.87347C0.0812283 5.88434 0.0753049 5.89563 0.0697168 5.90704C0.0619556 5.92364 0.0543724 5.94079 0.0474876 5.95829C0.0418934 5.97178 0.0372219 5.9849 0.0329613 5.99813C0.0278961 6.01453 0.0229752 6.03201 0.018742 6.04976C0.0155949 6.06215 0.0131026 6.07407 0.0109286 6.08605C0.00787129 6.10386 0.0052685 6.12229 0.0034117 6.14094C0.00180845 6.15517 0.00084376 6.16926 0.000310353 6.18337C0.000172487 6.19192 -5.43686e-07 6.20088 -5.429e-07 6.20987L0.000343736 6.23651C0.000870729 6.25 0.00179196 6.26348 0.00310939 6.27693L-5.429e-07 6.20987C-5.39107e-07 6.25326 0.00401771 6.2957 0.011703 6.33686C0.0134852 6.34669 0.0156085 6.35678 0.01796 6.36683C0.0228437 6.38752 0.0284875 6.40745 0.034986 6.42699C0.0381756 6.4367 0.0418921 6.44707 0.0458636 6.45737C0.0538976 6.47805 0.0626299 6.49777 0.0722365 6.51698C0.0766994 6.52601 0.0816977 6.53547 0.0869317 6.54483C0.0955231 6.5601 0.104374 6.57461 0.113733 6.58876C0.120336 6.59877 0.127648 6.60919 0.135284 6.61944L0.141233 6.62737C0.159755 6.65156 0.17985 6.6745 0.201363 6.69601L0.202188 6.69665L5.74802 12.2196C6.01706 12.4875 6.45236 12.4866 6.72029 12.2176C6.96386 11.973 6.98526 11.591 6.785 11.3223L6.71828 11.2453L2.354 6.89792L14.4375 6.89737C14.8172 6.89737 15.125 6.58957 15.125 6.20987Z" fill="#444444"/>
</svg>
