<svg width="16" height="13" viewBox="0 0 16 13" fill="none" xmlns="http://www.w3.org/2000/svg">
<path d="M5.429e-07 6.20987C5.73328e-07 5.86182 0.258642 5.57417 0.594211 5.52865L0.687501 5.52237L12.7728 5.52292L8.40676 1.17469C8.1377 0.906781 8.13676 0.471481 8.40467 0.202418C8.64822 -0.0421843 9.03011 -0.065196 9.29969 0.133924L9.37694 0.200325L14.9228 5.72233C14.9582 5.75764 14.989 5.79586 15.0152 5.83622C15.0226 5.84837 15.0301 5.8608 15.0372 5.87348C15.0438 5.88434 15.0497 5.89563 15.0553 5.90704C15.063 5.92364 15.0706 5.94079 15.0775 5.95829C15.0831 5.97178 15.0878 5.9849 15.092 5.99813C15.0971 6.01453 15.102 6.03201 15.1063 6.04976C15.1094 6.06215 15.1119 6.07407 15.1141 6.08604C15.1171 6.10386 15.1197 6.12229 15.1216 6.14094C15.1232 6.15517 15.1242 6.16926 15.1247 6.18337C15.1248 6.19192 15.125 6.20088 15.125 6.20987L15.1247 6.23651C15.1241 6.25 15.1232 6.26348 15.1219 6.27693L15.125 6.20987C15.125 6.25326 15.121 6.2957 15.1133 6.33686C15.1115 6.34669 15.1094 6.35678 15.107 6.36683C15.1022 6.38752 15.0965 6.40745 15.09 6.42699C15.0868 6.4367 15.0831 6.44707 15.0791 6.45737C15.0711 6.47805 15.0624 6.49777 15.0528 6.51698C15.0483 6.52601 15.0433 6.53547 15.0381 6.54483C15.0295 6.5601 15.0206 6.57461 15.0113 6.58876C15.0047 6.59877 14.9974 6.60919 14.9897 6.61944L14.9838 6.62737C14.9652 6.65156 14.9452 6.6745 14.9236 6.69601L14.9228 6.69665L9.37698 12.2196C9.10794 12.4875 8.67264 12.4866 8.40471 12.2176C8.16114 11.973 8.13974 11.591 8.34 11.3223L8.40672 11.2453L12.771 6.89792L0.6875 6.89737C0.307805 6.89737 5.09706e-07 6.58957 5.429e-07 6.20987Z" fill="#D5A789"/>
</svg>
