<svg width="1600" height="950" viewBox="0 0 1600 950" fill="none" xmlns="http://www.w3.org/2000/svg">
<g clip-path="url(#clip0_549_97)">
<rect width="1600" height="950" fill="#F9F9F9"/>
<mask id="mask0_549_97" style="mask-type:alpha" maskUnits="userSpaceOnUse" x="0" y="0" width="1600" height="950">
<rect width="1600" height="950" fill="#2A2D32"/>
</mask>
<g mask="url(#mask0_549_97)">
<g opacity="0.05">
<path d="M1041.26 952.15C1045.61 948.326 1047.38 943.227 1045.88 938.694C1043.44 931.613 1033.24 927.789 1018.28 928.072C992.039 928.497 966.477 934.021 944.45 943.935C919.975 954.983 900.395 970.846 886.254 991.1L885.982 991.525H887.614C914.128 953.566 962.942 930.48 1018.28 929.488C1032.69 929.205 1042.35 932.746 1044.52 939.261C1045.88 943.085 1044.25 947.618 1040.31 951.017C1018.28 970.138 1019.78 983.451 1024.94 991.525H1026.58L1026.3 991.1C1018.96 980.194 1023.99 967.163 1041.26 952.15Z" fill="#444444"/>
<path d="M1351 50.2141C1311.84 41.716 1258.27 30.2435 1170.57 2.62452C1167.85 1.7747 1164.99 0.924887 1162 0.0750732H1157.11L1159.28 0.783252C1163.23 1.91634 1166.9 3.04942 1170.16 4.04087C1257.86 31.6598 1311.57 43.1323 1350.73 51.6305L1359.84 53.6134L1360.11 53.755V52.3386L1351 50.2141Z" fill="#444444"/>
<path d="M1327.21 26.8442C1289.95 18.9126 1247.93 9.7063 1214.62 0.0750732H1209.86L1211.77 0.783252C1245.49 10.6977 1288.73 20.0457 1326.8 28.2606C1338.36 30.81 1349.23 33.0762 1359.7 35.484H1359.84V34.0676C1349.64 31.6598 1338.76 29.3937 1327.21 26.8442Z" fill="#444444"/>
<path d="M1325.57 12.6806C1304.77 8.14831 1286.69 4.18251 1270.51 0.0750732H1265.07L1267.38 0.783252C1284.24 5.03232 1303.28 9.13976 1325.3 14.097C1336.32 16.5048 1347.74 19.0543 1359.7 21.7453H1359.84V20.329C1348.01 17.4963 1336.59 15.0885 1325.57 12.6806Z" fill="#444444"/>
<path d="M327.824 251.336C357.058 232.924 384.796 215.502 408.999 203.038C513.288 149.359 558.294 170.746 577.602 198.223C605.34 237.739 594.598 302.467 576.922 409.685C575.426 418.608 573.93 427.673 572.435 437.162C572.027 439.287 571.619 441.836 571.211 444.811C564.956 481.069 548.504 577.098 578.689 594.095C580.457 595.086 582.225 595.653 583.992 595.653C585.216 595.653 586.44 595.369 587.664 594.944C600.581 589.846 611.866 557.269 624.919 519.594C641.508 471.58 662.039 411.951 693.312 390.281C707.997 380.083 735.191 373.001 761.433 366.061C768.776 364.078 776.254 362.095 783.325 360.112C798.553 355.863 820.717 348.073 838.393 330.369C852.67 316.205 865.995 300.201 877.824 286.037C886.662 275.556 894.956 265.641 902.299 257.852L907.466 252.469C940.098 218.618 965.797 191.849 993.263 175.844C1036.64 150.633 1070.77 142.277 1128.55 142.702C1131.95 142.702 1136.17 142.843 1141.06 142.985C1173.56 143.835 1233.93 145.393 1249.16 125.989C1252.56 121.74 1253.51 116.641 1252.15 110.834C1243.18 71.3173 1148.4 72.4504 1097.55 73.0169C1079.88 73.1586 1062.88 74.2917 1048.06 75.1415C1013.11 77.266 985.648 78.9656 973.955 68.6262C963.077 58.995 968.244 43.6983 972.323 31.376C975.043 23.3028 977.354 16.221 974.771 12.2552C968.652 2.76563 952.472 3.33218 932.484 13.8132C885.166 38.4578 874.153 110.125 863.547 179.385C861.236 194.115 858.924 209.412 856.205 223.717C840.704 306.999 821.668 339.292 745.389 354.589C696.848 364.22 664.079 383.907 642.324 416.2C640.556 418.891 638.652 421.866 636.885 424.84C629.678 436.879 622.2 449.201 613.498 444.386C600.309 436.879 607.243 384.332 610.914 356.147C611.594 351.331 612.138 347.365 612.41 344.108C612.818 340 613.362 335.893 613.906 331.785C618.121 295.385 622.608 257.71 615.13 221.026C608.059 186.325 593.238 161.964 570.803 148.65C540.074 130.379 495.612 131.937 434.833 153.324C374.734 174.428 319.938 208.279 266.91 240.997C250.321 251.195 233.189 261.817 216.193 271.732C151.199 309.69 80.6304 333.343 0.271973 344.108V345.524H0.407943C81.0383 334.76 151.743 310.965 216.601 272.865C233.597 262.809 250.729 252.328 267.318 241.988C320.346 209.27 375.142 175.561 434.969 154.457C495.476 133.212 539.53 131.654 569.851 149.642C591.879 162.814 606.699 186.892 613.634 221.168C620.976 257.71 616.625 295.243 612.41 331.502C611.866 335.609 611.458 339.717 610.914 343.824C610.507 347.082 609.963 351.189 609.419 355.863C605.34 386.457 598.677 437.587 612.682 445.519C622.608 451.043 630.358 438.154 637.972 425.548C639.876 422.432 641.508 419.599 643.275 417.05C664.759 385.04 697.255 365.636 745.525 356.005C822.62 340.567 841.792 308.132 857.429 224.001C860.148 209.695 862.459 194.399 864.771 179.669C875.377 110.692 886.39 39.4493 933.028 15.2296C952.472 5.17344 967.972 4.32363 973.683 13.2467C975.859 16.6459 973.683 23.3028 971.1 31.0928C966.885 43.84 961.582 59.7032 973.139 69.9009C985.241 80.5236 1011.62 78.9656 1048.19 76.8411C1063.15 75.9913 1080.01 74.8582 1097.69 74.7166C1148.13 74.15 1242.22 73.0169 1250.93 111.4C1252.15 116.782 1251.2 121.456 1248.21 125.422C1233.39 144.401 1173.42 142.843 1141.2 141.994C1136.3 141.852 1132.09 141.71 1128.69 141.71C1127.33 141.71 1126.11 141.71 1124.88 141.71C1069.13 141.71 1035.41 150.35 992.719 174.995C965.117 190.999 939.283 217.91 906.65 251.903L901.483 257.285C894.004 265.075 885.71 274.989 877.008 285.47C865.179 299.634 851.854 315.639 837.713 329.661C820.173 347.082 798.145 354.73 783.189 358.979C776.254 360.962 768.64 362.945 761.298 364.928C734.919 371.868 707.725 378.95 692.768 389.289C661.087 411.243 640.42 471.155 623.832 519.311C610.914 556.703 599.765 588.996 587.392 593.811C584.808 594.803 582.225 594.661 579.505 593.103C550.272 576.673 566.588 481.211 572.707 445.377C573.251 442.403 573.659 439.853 574.066 437.729C575.562 428.239 577.194 419.175 578.553 410.252C596.366 302.608 607.107 237.739 579.097 197.656C559.518 169.754 513.968 147.942 408.863 202.047C384.66 214.511 356.922 231.932 327.552 250.345C238.356 306.008 127.812 375.551 0.271973 384.899V386.315C128.22 376.826 238.9 307.282 327.824 251.336Z" fill="#444444"/>
<path d="M260.247 205.73C279.691 195.674 299.951 185.334 321.978 174.287C483.918 93.8376 545.649 99.7863 581.545 113.95C626.687 131.796 648.035 179.386 645.043 255.302C644.091 280.372 640.284 303.6 637.293 322.296C632.67 351.331 629.543 370.594 639.468 375.409C640.284 375.834 641.236 375.976 642.188 375.976C645.723 375.976 650.074 373.426 656.329 369.602C665.031 364.362 676.86 357.28 695.216 351.331C713.028 345.666 726.217 342.975 739.135 340.567C750.828 338.301 761.842 336.035 775.711 331.786C825.068 316.489 833.77 241.422 842.2 168.763C845.599 139.444 849.135 109.276 855.253 83.0733C862.732 51.0636 870.754 25.1443 885.575 2.76585C886.118 1.91604 886.662 1.06623 887.206 0.216411L887.478 -0.208496H885.846C885.439 0.499682 884.895 1.20786 884.487 1.91604C869.53 24.5777 861.508 50.6387 853.893 82.79C847.775 108.993 844.24 139.303 840.84 168.621C832.41 240.855 823.844 315.497 775.303 330.369C761.434 334.618 750.42 336.743 738.863 339.151C725.945 341.7 712.756 344.249 694.808 350.057C676.316 356.005 664.351 363.229 655.649 368.469C648.035 373.002 643.412 375.834 640.012 374.135C631.038 369.744 634.166 349.915 638.517 322.579C641.508 303.883 645.315 280.655 646.267 255.444C649.258 178.819 627.639 130.663 581.953 112.675C545.921 98.3699 483.647 92.4212 321.298 173.012C299.271 183.918 279.011 194.399 259.568 204.455C168.467 251.336 102.794 285.187 0.13623 295.385V296.802C103.202 286.604 169.147 252.611 260.247 205.73Z" fill="#444444"/>
<path d="M154.326 391.131C195.253 374.418 236.18 351.614 279.419 321.446C284.994 317.622 291.112 313.231 297.639 308.699C363.585 261.959 473.992 183.918 527.565 204.172C589.975 227.825 572.979 311.39 542.114 462.94L541.162 467.897C522.67 558.403 516.959 619.306 523.758 653.865C527.837 674.402 536.539 688.141 548.504 692.248C551.088 693.24 553.807 693.665 556.526 693.665C563.597 693.665 570.667 690.69 577.058 684.883C606.971 657.689 619.345 613.357 632.262 566.334L633.078 563.36C651.434 496.791 673.869 442.12 691.409 420.591C710.037 397.788 737.503 389.29 764.017 382.633C770.544 380.933 776.798 379.517 782.781 378.1C824.932 367.903 855.525 360.537 885.438 330.227C900.531 314.931 913.856 299.634 926.773 284.904C971.508 233.774 1010.26 189.442 1093.2 177.544C1121.62 173.437 1148.4 173.295 1174.38 173.295C1209.32 173.153 1242.22 173.012 1275.81 163.381C1294.57 157.998 1306.4 149.784 1311.84 138.594C1317.96 125.989 1315.92 109.276 1306.4 95.8203C1299.06 85.4809 1288.18 77.2661 1271.87 69.7594C1245.76 57.7203 1217.34 52.1965 1189.88 46.8144L1082.32 25.569C1066.82 22.453 1051.32 17.0709 1038.54 10.2724C1033.24 7.43966 1029.16 4.18204 1026.58 0.499512H1024.94L1025.22 0.924419C1027.94 4.89022 1032.29 8.57275 1038 11.5471C1050.91 18.4872 1066.55 23.8694 1082.19 26.9854L1189.74 48.2307C1217.07 53.6129 1245.49 59.2783 1271.46 71.1757C1287.5 78.5408 1298.24 86.614 1305.45 96.8118C1314.56 109.701 1316.6 125.847 1310.75 138.028C1305.45 148.934 1293.89 156.865 1275.54 162.106C1242.09 171.737 1209.18 171.879 1174.38 172.02C1148.4 172.162 1121.62 172.162 1093.07 176.411C1009.58 188.45 970.828 232.924 925.822 284.337C912.904 299.068 899.579 314.364 884.487 329.661C854.845 359.688 824.524 367.053 782.509 377.109C776.526 378.525 770.272 380.083 763.745 381.641C737.095 388.298 709.357 396.796 690.457 420.024C672.781 441.695 650.346 496.649 631.854 563.36L631.038 566.334C618.121 613.216 605.884 657.406 576.242 684.175C567.812 691.823 557.886 694.373 548.912 691.257C537.491 687.149 528.924 673.977 524.981 653.865C518.319 619.448 523.893 558.828 542.249 468.464L543.201 463.507C574.202 311.107 591.335 227.117 527.701 203.039C473.449 182.501 362.769 260.826 296.551 307.707C290.025 312.381 283.906 316.63 278.331 320.455C182.2 387.448 93.8195 420.449 0.271973 424.132V425.548C51.6687 423.565 103.473 411.951 154.326 391.131Z" fill="#444444"/>
<path d="M1359.84 207.146C1327.75 211.962 1273.77 211.395 1205.38 210.546C1192.87 210.404 1180.09 210.262 1166.9 210.121C1116.86 209.696 1069.81 220.46 1037.73 239.581C1010.8 255.586 986.328 279.947 962.669 303.6C939.826 326.404 916.168 350.057 890.469 365.637C863.819 381.925 833.226 388.298 803.584 394.53C763.881 402.887 726.353 410.818 700.383 440.704C673.053 472.288 659.32 524.41 644.635 579.648C639.06 600.893 633.214 622.847 626.551 643.384C613.362 684.317 586.168 740.546 559.926 768.59C543.745 785.87 527.021 794.509 513.152 792.668C503.362 791.393 494.932 785.02 488.949 774.255C467.738 736.156 489.629 614.066 510.84 495.941C512.2 488.718 514.647 477.812 517.503 465.065C531.1 405.295 556.526 293.969 528.38 254.594C520.358 243.405 509.345 237.031 495.476 235.332C454.957 230.516 395.266 269.041 356.514 303.317C352.843 306.575 349.036 309.974 345.365 313.373C298.319 355.58 245.018 403.312 147.528 422.149C79.8146 435.321 26.3783 455.15 0.271973 465.915V467.473L0.543913 467.331C26.3783 456.567 79.9505 436.738 147.8 423.566C245.562 404.586 298.999 356.714 346.18 314.506C349.987 311.107 353.659 307.849 357.33 304.592C395.809 270.457 455.092 232.216 495.34 236.89C508.801 238.448 519.542 244.68 527.293 255.586C555.167 294.394 529.74 405.295 516.143 464.923C513.288 477.529 510.704 488.576 509.481 495.8C488.269 614.207 466.242 736.58 487.861 775.105C494.116 786.295 502.818 792.951 513.152 794.226C514.376 794.368 515.735 794.509 517.095 794.509C530.556 794.509 546.057 785.87 561.149 769.723C587.664 741.538 614.858 685.025 628.183 643.951C634.845 623.272 640.692 601.318 646.267 580.073C660.815 524.977 674.685 472.996 701.743 441.695C727.441 412.093 764.697 404.161 804.128 395.947C833.906 389.715 864.635 383.199 891.421 366.911C917.255 351.19 940.914 327.537 963.893 304.592C987.416 281.08 1011.75 256.719 1038.68 240.856C1070.63 221.876 1117.54 211.112 1167.17 211.679C1180.36 211.82 1193.14 211.962 1205.65 212.103C1274.04 212.953 1328.02 213.52 1360.25 208.704L1359.84 207.146Z" fill="#444444"/>
<path d="M1359.84 246.238C1314.97 253.178 1270.91 254.452 1224.28 255.869C1206.33 256.435 1187.84 257.002 1168.94 257.852C1118.9 260.259 1077.7 271.307 1046.43 290.711C1018.15 308.274 997.478 327.678 977.354 346.374C954.783 367.478 933.3 387.448 905.562 399.204C882.719 408.835 856.477 413.651 830.914 418.467C783.597 427.248 734.783 436.454 708.949 475.971C691.545 502.598 677.676 546.222 660 601.318C651.298 628.654 641.372 659.814 629.678 692.673C614.994 734.314 591.199 782.754 566.316 822.128C526.477 885.015 492.62 911.925 462.707 904.135C404.919 889.122 437.416 719.867 449.654 656.273C451.149 648.341 452.373 641.968 453.053 637.719C458.628 603.726 468.554 563.643 479.023 521.011C498.603 441.553 518.863 359.263 512.064 311.248C509.209 290.853 499.147 276.406 483.782 270.174C458.22 259.976 421.236 273.998 379.765 309.832C358.962 327.82 343.189 345.949 327.96 363.654C303.894 391.556 281.051 417.9 243.115 436.313C217.96 448.493 184.376 452.176 151.743 455.858C130.395 458.266 110.272 460.391 92.3238 464.923C51.1248 475.121 16.8603 495.8 0 507.272V508.972L0.407911 508.688C17.1323 497.216 51.3968 476.396 92.5957 466.198C110.544 461.807 130.667 459.541 151.879 457.275C184.512 453.734 218.368 449.91 243.659 437.587C281.866 419.033 304.709 392.547 328.912 364.503C344.141 346.941 359.913 328.67 380.581 310.823C421.644 275.414 458.084 261.393 483.238 271.449C498.059 277.397 507.849 291.561 510.568 311.39C517.367 359.263 497.107 441.27 477.528 520.586C467.058 563.077 457.132 603.301 451.557 637.294C450.877 641.543 449.654 647.775 448.158 655.706C435.785 719.726 403.016 889.972 462.163 905.268C465.698 906.26 469.369 906.685 472.905 906.685C486.094 906.685 499.691 900.594 514.376 888.272C530.828 874.392 548.096 853.005 567.268 822.695C592.286 783.178 616.081 734.739 630.766 692.957C642.46 660.097 652.249 629.079 661.087 601.602C678.628 546.505 692.497 503.023 709.765 476.537C735.327 437.446 781.693 428.806 830.778 419.6C856.341 414.784 882.719 409.968 905.698 400.337C933.708 388.581 955.191 368.469 977.898 347.224C997.886 328.528 1018.55 309.265 1046.7 291.703C1077.7 272.44 1118.63 261.393 1168.53 258.985C1187.43 258.135 1206.06 257.568 1223.87 257.002C1270.51 255.585 1314.56 254.311 1359.43 247.371L1359.84 246.238Z" fill="#444444"/>
<path d="M1359.97 295.385C1261.4 305.158 1229.58 306.858 1201.57 308.274C1193 308.699 1184.85 309.124 1175.33 309.832C1141.33 312.098 1118.9 313.94 1087.49 324.279C1049.01 336.885 1028.48 357.139 991.088 393.964C985.785 399.204 980.074 404.87 973.955 410.818C935.884 447.927 889.654 451.468 844.92 454.867C793.931 458.833 745.661 462.516 719.963 518.603C705.414 550.471 695.216 585.739 684.475 623.13C666.799 684.459 646.811 754.002 601.261 831.052C541.978 931.188 490.445 972.404 439.048 960.79C370.791 945.352 394.858 813.205 407.911 742.246C409.135 735.589 410.223 729.357 411.174 723.833C414.71 702.871 422.868 671.428 432.25 635.169C452.917 554.72 478.616 454.726 479.703 380.792C480.111 347.932 469.642 322.013 452.373 312.948C442.448 307.849 425.723 305.725 402.064 324.846C382.485 340.709 367.528 364.504 351.619 389.715C323.61 434.188 294.512 480.078 237.268 488.01C215.377 490.984 195.118 491.409 175.674 491.692C122.238 492.542 71.6566 493.25 0.408203 550.046V551.888L0.816114 551.604C72.0645 494.808 122.374 493.959 175.674 493.25C195.254 492.967 215.513 492.684 237.54 489.568C295.328 481.495 324.561 435.321 352.843 390.565C368.752 365.495 383.708 341.7 403.016 325.979C421.236 311.107 438.096 307.141 451.829 314.223C468.69 323.004 478.888 348.499 478.344 380.792C477.256 454.442 451.558 554.437 430.89 634.745C421.508 671.145 413.486 702.588 409.815 723.55C408.863 728.932 407.775 735.306 406.551 741.963C393.498 813.347 369.16 946.343 438.776 962.065C444.215 963.339 449.79 963.906 455.365 963.906C478.616 963.906 502.41 953.142 526.341 931.613C550.544 909.943 575.426 877.225 602.485 831.618C648.171 754.285 668.294 684.742 685.834 623.272C696.576 586.022 706.638 550.755 721.187 519.028C746.613 463.649 794.339 459.966 844.92 456C889.926 452.601 936.292 449.06 974.771 411.527C980.89 405.578 986.601 399.913 991.903 394.672C1029.16 357.988 1049.69 337.734 1087.76 325.271C1119.04 315.073 1141.33 313.09 1175.33 310.965C1184.85 310.399 1193 309.974 1201.57 309.407C1229.58 307.991 1261.4 306.291 1359.97 296.518V295.385Z" fill="#444444"/>
<path d="M364.128 860.654C369.839 812.497 376.91 752.444 400.025 680.918C400.704 678.793 401.52 676.386 402.472 673.411C411.582 645.651 432.793 580.64 444.895 519.595C459.987 443.537 456.18 398.213 433.609 384.899C395.266 362.238 359.233 425.549 337.75 463.366C332.991 471.58 328.912 478.804 325.649 483.619C296.687 526.393 265.142 537.016 200.692 525.544C162.077 518.745 129.988 520.161 99.8022 530.359C63.9061 542.257 31.4092 566.193 0.271973 603.443V605.568L0.815854 605.001C73.6959 517.329 145.76 517.187 200.42 526.96C234.549 533.05 259.567 532.484 279.147 525.402C297.367 518.745 312.188 506.14 326.737 484.469C330 479.512 334.079 472.43 338.838 464.074C360.049 426.682 395.673 364.221 432.793 386.174C467.194 406.57 456.588 503.024 401.112 672.986C400.16 675.819 399.345 678.368 398.665 680.493C375.55 752.302 368.479 812.356 362.769 860.512C355.834 919.857 350.667 962.631 320.754 991.1L320.074 991.667H322.114C352.027 962.773 357.194 919.857 364.128 860.654Z" fill="#444444"/>
<path d="M340.877 860.653C347.268 810.656 360.049 764.199 373.51 715.193C389.963 655.423 406.959 593.528 412.806 521.436C414.165 504.723 415.117 487.018 410.358 470.164C408.999 465.49 405.055 454.442 396.081 453.451C386.156 452.318 379.901 463.79 376.094 472.571C358.554 512.229 336.39 539.99 310.012 555.003C284.722 569.45 252.633 561.519 221.632 554.012C212.658 551.746 204.091 549.763 195.797 548.205C113.535 533.05 80.7664 566.476 42.8307 605.142C25.8344 621.997 3.94317 649.474 0.271973 654.007V656.273L0.815854 655.565C1.08779 655.281 25.4265 624.547 43.6465 605.992C81.3102 567.609 113.807 534.466 195.389 549.48C203.683 551.038 212.25 553.162 221.224 555.287C252.497 562.935 284.858 570.867 310.556 556.137C337.07 540.981 359.505 513.079 377.182 472.996C380.853 464.64 386.835 453.734 395.809 454.725C403.968 455.717 407.775 466.056 408.999 470.447C413.758 487.018 412.806 504.581 411.446 521.152C405.463 593.103 388.603 654.857 372.151 714.627C358.69 763.774 345.908 810.231 339.518 860.37C330.816 928.922 310.692 967.871 272.484 990.816L271.533 991.383H274.252C312.188 968.296 332.175 929.063 340.877 860.653Z" fill="#444444"/>
<path d="M327.96 800.175C333.127 777.938 338.294 754.993 344.957 731.765C347.404 723.125 349.716 714.91 352.027 706.837C371.063 640.268 383.708 596.361 372.694 576.107C364.672 561.094 354.61 566.901 339.518 575.541C324.289 584.322 303.486 596.361 272.756 594.237C256.848 593.103 241.075 588.429 224.351 583.472C188.183 572.708 150.791 561.519 109.32 586.022C60.0989 614.774 11.1496 694.656 0.271973 713.069V715.902L0.815854 714.769C10.3338 698.622 60.0989 616.473 110 587.155C151.063 563.077 188.183 574.124 224.079 584.747C240.939 589.704 256.848 594.52 272.756 595.653C303.758 597.777 324.833 585.738 340.198 576.815C355.018 568.317 363.992 563.077 371.471 576.815C382.076 596.644 369.567 640.268 350.667 706.412C348.356 714.344 346.044 722.7 343.597 731.34C337.07 754.568 331.767 777.655 326.601 799.75C307.429 883.032 290.84 954.841 218.232 990.816L216.601 991.525H220C292.2 955.124 308.788 883.315 327.96 800.175Z" fill="#444444"/>
<path d="M255.216 916.033C274.252 882.607 286.081 840.116 298.047 786.295C302.806 765.049 307.701 746.07 312.188 729.357C323.065 687.858 330.272 660.381 320.346 646.925C313.411 637.577 307.157 637.577 294.511 637.577C280.506 637.577 259.567 637.577 221.359 625.396C180.16 612.224 155.006 611.658 124.956 623.697C75.5992 643.384 21.619 740.688 0.135742 782.895V785.87L0.679623 784.737C21.755 743.237 75.8712 644.659 125.364 624.972C155.006 613.216 180.024 613.641 220.815 626.813C259.159 639.135 280.37 639.135 294.375 638.994C306.885 638.994 312.595 638.993 319.122 647.775C328.64 660.664 321.434 687.858 310.692 728.932C306.341 745.645 301.31 764.624 296.551 786.011C271.124 900.311 246.378 957.107 167.243 990.958L165.612 991.666H169.283C208.17 974.67 235.5 950.592 255.216 916.033Z" fill="#444444"/>
<path d="M167.923 0.783252L169.555 0.0750732H165.748C121.557 17.7795 29.9135 12.3974 0.407943 7.15686H0.271973V8.57321C14.5489 11.1227 43.1026 13.6721 73.8319 13.6721C107.96 13.5305 144.944 10.4145 167.923 0.783252Z" fill="#444444"/>
<path d="M218.776 0.641616L220.136 0.0750732H216.873C136.922 39.3082 25.9704 25.9944 0.407943 20.329H0.271973V21.7453C12.1014 24.4364 41.8789 28.5438 78.4549 28.5438C121.965 28.5438 175.13 22.5951 218.776 0.641616Z" fill="#444444"/>
<path d="M273.164 0.641616L274.252 0.0750732H271.533C182.608 57.7208 45.822 44.1238 0.407943 34.0676H0.271973V35.484C19.3078 39.7331 53.9802 44.5487 94.6353 44.5487C152.015 44.5487 220.952 34.9175 273.164 0.641616Z" fill="#444444"/>
<path d="M321.57 0.641616L322.114 0.0750732H320.074C224.895 92.2799 51.3968 63.3862 0.407943 52.197H0.271973V53.6134C22.7071 58.429 68.665 66.7855 121.286 66.7855C189.135 66.7855 267.861 53.0468 321.57 0.641616Z" fill="#444444"/>
<path d="M1146.09 986.993C1119.17 979.486 1095.78 972.971 1091.57 959.798C1089.39 953.283 1091.98 945.21 1099.46 935.296C1101.22 932.888 1101.77 930.622 1101.09 928.355C1098.64 920.282 1080.42 914.475 1061.25 908.243C1038.27 900.878 1014.47 893.23 1017.06 881.899C1019.78 869.152 1035.01 861.645 1052.68 853.005C1061.93 848.473 1071.45 843.799 1080.28 837.709C1098.78 825.245 1109.38 815.755 1118.76 807.399C1131.82 795.643 1143.1 785.587 1170.7 771.99C1254.73 730.774 1321.49 651.316 1357.39 608.684L1359.97 605.709V603.443L1356.44 607.692C1320.54 650.325 1253.92 729.64 1170.16 770.715C1142.29 784.453 1131 794.51 1117.81 806.265C1108.43 814.622 1097.96 824.112 1079.47 836.434C1070.63 842.383 1061.11 847.057 1052 851.589C1034.05 860.37 1018.55 868.019 1015.7 881.474C1012.98 894.221 1037.32 902.011 1060.84 909.518C1078.92 915.325 1097.55 921.274 1099.73 928.639C1100.27 930.48 1099.86 932.321 1098.37 934.304C1090.62 944.643 1088.03 953.142 1090.35 960.082C1094.83 973.962 1117.27 980.336 1145.82 988.267C1149.49 989.259 1153.16 990.392 1156.84 991.383H1162.27L1159.69 990.675C1155.07 989.542 1150.58 988.267 1146.09 986.993Z" fill="#444444"/>
<path d="M1359.43 654.715C1357.39 657.265 1355.22 659.956 1352.9 662.93C1334.55 685.875 1306.81 720.717 1288.45 737.43C1251.88 770.856 1228.63 783.462 1196.4 800.883C1182.13 808.673 1165.81 817.454 1145.69 829.352C1120.67 844.224 1106.25 859.095 1102.58 873.401C1100.41 881.757 1102.72 888.272 1104.89 892.096C1110.33 901.586 1122.98 907.96 1135.08 914.192C1147.32 920.424 1158.87 926.372 1160.1 934.304C1160.78 938.411 1158.6 942.802 1153.57 947.901C1149.9 951.583 1148.54 955.266 1149.49 959.09C1151.94 969.43 1171.66 979.911 1209.59 991.383H1214.89L1212.31 990.675C1173.29 979.202 1153.16 968.721 1150.85 958.807C1150.04 955.549 1151.26 952.292 1154.52 948.892C1159.96 943.51 1162.14 938.695 1161.46 934.021C1160.1 925.381 1148.27 919.291 1135.62 912.917C1123.66 906.827 1111.15 900.453 1105.98 891.247C1103.81 887.564 1101.77 881.474 1103.81 873.542C1107.34 859.662 1121.62 845.073 1146.23 830.485C1166.35 818.446 1182.67 809.665 1196.95 802.016C1229.31 784.595 1252.69 771.989 1289.27 738.422C1307.76 721.567 1335.5 686.725 1353.99 663.638C1356.17 660.947 1358.21 658.398 1359.97 656.131V653.724L1359.43 654.715Z" fill="#444444"/>
<path d="M1359.43 714.061C1336.86 752.586 1297.29 790.119 1258.68 809.806L1253.1 812.639C1236.24 821.137 1215.3 831.76 1193.14 845.499C1178.59 854.422 1171.11 862.92 1169.89 871.418C1168.53 881.899 1176.69 890.68 1185.39 900.17C1196.27 912.067 1207.55 924.248 1199.67 940.253C1196.13 947.335 1195.72 953.567 1198.17 959.232C1204.42 973.537 1229.31 982.602 1264.8 991.667H1271.19L1267.79 990.958C1236.11 983.027 1205.92 973.679 1199.39 958.665C1197.08 953.425 1197.63 947.618 1200.89 940.961C1209.18 924.106 1197.63 911.501 1186.34 899.32C1177.91 890.114 1169.89 881.474 1171.25 871.701C1172.34 863.628 1179.68 855.555 1193.82 846.773C1215.98 833.035 1236.92 822.554 1253.65 813.914L1259.22 811.081C1297.84 791.394 1337.27 754.002 1359.97 715.76V713.211L1359.43 714.061Z" fill="#444444"/>
<path d="M1359.43 784.028C1331.01 838.983 1297.84 871.559 1273.77 895.354C1260.72 908.242 1250.52 918.299 1244.4 928.355C1240.32 935.153 1239.51 941.952 1242.09 948.75C1248.62 965.463 1275.4 980.193 1319.86 991.524H1324.89V991.383L1322.85 990.816C1265.2 976.511 1247.66 959.656 1243.18 948.184C1240.73 941.81 1241.41 935.437 1245.35 929.063C1251.47 919.148 1261.67 909.092 1274.59 896.345C1298.65 872.55 1331.56 840.116 1359.97 785.728V782.753L1359.43 784.028Z" fill="#444444"/>
<path d="M1006.04 102.761C983.881 107.151 964.437 109.843 956.415 109.559C945.538 109.134 943.77 101.769 942.274 90.4384C941.73 86.1894 940.099 83.4983 937.379 82.5068C931.805 80.5239 923.374 86.331 917.8 91.9964C906.514 103.469 895.5 128.68 890.198 154.599C887.75 166.78 876.057 227.683 884.895 236.323C885.575 237.031 886.526 237.456 887.478 237.456C887.886 237.456 888.294 237.456 888.702 237.315C896.044 235.19 903.659 226.125 914.4 213.661C927.453 198.365 945.401 177.403 972.867 157.007C1006.04 132.221 1039.36 124.289 1052.14 122.023C1055.95 121.315 1059.75 120.89 1063.56 120.324C1074.85 118.766 1084.5 117.491 1087.63 112.817C1088.58 111.401 1088.85 109.559 1088.44 107.576C1085.18 94.121 1044.52 94.9708 1006.04 102.761ZM1086.54 111.967C1083.82 116.075 1073.89 117.491 1063.42 118.907C1059.62 119.474 1055.67 119.899 1052 120.607C1039.09 122.873 1005.64 130.946 972.188 155.874C944.586 176.411 926.638 197.373 913.584 212.812C903.115 225.134 895.5 234.057 888.566 236.04C887.614 236.323 886.798 236.182 886.118 235.473C880 229.525 884.623 190.858 891.829 155.166C896.996 129.388 907.874 104.602 919.023 93.2712C924.734 87.4641 932.484 82.3652 937.243 84.0648C939.419 84.9146 940.778 87.1808 941.322 90.8633C942.546 100.636 943.906 110.692 956.687 111.259C964.845 111.542 984.425 108.851 1006.59 104.46C1050.1 95.679 1084.77 97.237 1087.35 108.143C1087.35 109.418 1087.22 110.834 1086.54 111.967Z" fill="#444444"/>
<path d="M1359.97 424.132C1314.29 425.973 1247.26 448.635 1200.48 495.233C1186.34 509.396 1172.61 525.684 1158.19 542.822C1119.71 588.712 1079.88 636.019 1021.82 654.431C914.4 688.282 887.07 718.167 850.494 777.938C830.098 811.222 818.405 844.081 808.071 872.975C797.873 901.586 789.035 926.23 774.35 946.059C765.512 958.098 757.082 962.914 749.332 960.506C732.064 954.982 722.138 916.316 719.962 880.482C718.875 862.069 711.124 698.48 783.732 613.923C810.519 582.764 845.191 565.909 886.798 563.926C899.987 563.218 912.088 562.793 923.918 562.51C1010.26 559.535 1057.71 557.836 1123.25 479.228C1182.53 408.268 1276.22 392.405 1359.97 386.173V384.757C1275.81 390.847 1181.85 406.852 1122.3 478.237C1057.17 556.278 1009.85 557.977 923.918 560.952C912.224 561.377 899.987 561.802 886.798 562.368C844.783 564.493 809.703 581.347 782.781 612.79C754.363 645.792 734.919 694.089 724.993 756.409C715.747 814.338 717.787 865.893 718.739 880.34C720.914 916.741 731.248 955.974 749.06 961.639C750.556 962.064 751.915 962.347 753.411 962.347C760.482 962.347 767.824 957.107 775.574 946.767C790.395 926.797 799.233 902.01 809.431 873.258C819.764 844.365 831.458 811.647 851.718 778.504C888.158 718.876 915.216 689.274 1022.22 655.564C1080.69 637.152 1120.67 589.562 1159.28 543.531C1173.7 526.393 1187.29 510.105 1201.57 495.941C1248.21 449.484 1314.83 426.964 1360.25 425.265L1359.97 424.132Z" fill="#444444"/>
<path d="M1359.84 344.108C1288.59 353.598 1235.29 360.963 1207.01 366.486C1157.92 375.976 1122.71 391.697 1089.12 419.175C1077.43 428.806 1067.09 440.42 1057.17 451.609C1043.03 467.614 1028.34 484.327 1009.31 494.95C981.298 510.813 950.568 511.663 920.655 512.513C909.097 512.796 897.268 513.221 885.575 514.354C836.625 519.311 795.29 540.415 762.521 576.957C735.735 606.984 714.388 647.775 699.295 698.055C672.645 786.719 672.509 878.641 672.509 908.809V912.067C672.373 941.811 673.053 967.73 674.549 991.383H675.908C674.413 967.871 673.733 941.811 673.869 912.067V908.809C673.869 878.641 674.005 787.003 700.519 698.48C734.24 586.163 796.514 524.693 885.711 515.629C897.268 514.496 909.233 514.071 920.655 513.787C950.568 512.938 981.57 512.088 1009.85 496.083C1029.02 485.177 1043.84 468.606 1058.12 452.459C1068.05 441.27 1078.24 429.656 1089.94 420.166C1123.39 392.831 1158.47 377.251 1207.28 367.761C1235.43 362.237 1288.73 354.872 1359.84 345.383V344.108Z" fill="#444444"/>
<path d="M1359.7 465.914C1357.26 466.906 1354.54 468.039 1351.95 469.03C1327.75 478.945 1297.56 491.126 1260.04 517.328C1235.43 534.466 1215.17 557.694 1193.82 582.197C1174.92 603.868 1155.34 626.388 1131.14 646.5C1105.03 668.312 1076.48 683.042 1046.16 698.622C988.096 728.507 928.133 759.525 875.92 844.223C852.261 882.607 832.954 917.732 816.909 990.958V991.1H818.269C834.313 918.157 853.621 883.173 877.144 844.932C929.221 760.517 989.048 729.64 1046.83 699.755C1077.16 684.175 1105.85 669.303 1132.09 647.491C1156.43 627.237 1176.01 604.717 1194.91 583.047C1216.25 558.544 1236.38 535.458 1260.85 518.32C1298.38 492.259 1328.43 479.936 1352.5 470.163C1355.08 469.172 1357.53 468.039 1359.97 467.048V465.49L1359.7 465.914Z" fill="#444444"/>
<path d="M1359.57 507.555C1337.95 522.427 1285.73 568.884 1209.46 651.174C1161.59 702.729 1119.44 722.275 1074.57 742.954C1052.82 753.01 1030.38 763.349 1006.04 777.938C951.928 810.231 913.992 842.807 886.934 880.482C860.284 917.591 847.231 955.691 837.169 991.241V991.383H838.529C858.652 920.282 886.662 850.597 1006.72 778.929C1030.93 764.482 1053.36 754.143 1075.12 744.087C1119.99 723.408 1162.41 703.721 1210.41 652.024C1286.14 570.3 1338.22 523.985 1359.97 508.972V507.272L1359.57 507.555Z" fill="#444444"/>
<path d="M1359.57 550.613C1327.21 576.107 1291.31 612.083 1262.48 641.118C1246.03 657.689 1231.76 671.994 1220.74 681.767C1166.35 730.348 1113.73 756.551 1067.37 779.638C1044.12 791.252 1022.09 802.158 1003.73 814.338C934.524 860.512 876.873 947.193 859.74 991.241L859.604 991.525H861.1C878.232 947.617 935.476 861.503 1004.41 815.471C1022.63 803.291 1044.52 792.385 1067.91 780.771C1114.41 757.684 1167.17 731.481 1221.69 682.617C1232.71 672.844 1246.98 658.539 1263.44 641.968C1292.13 613.216 1327.75 577.382 1359.98 552.029V550.188L1359.57 550.613Z" fill="#444444"/>
<path d="M696.304 136.895C710.173 190.15 723.77 215.928 740.494 220.319C743.078 221.027 745.525 221.31 747.973 221.31C764.561 221.31 776.934 205.164 785.5 172.304C791.075 151.342 795.29 125.706 800.321 95.9624C805.08 67.4937 810.519 35.2007 818.133 0.358345L818.269 0.0750732H816.773C809.159 35.0591 803.72 67.352 798.961 95.6792C793.931 125.423 789.715 151.059 784.141 171.879C774.487 208.563 760.21 223.859 740.766 218.761C724.858 214.653 711.125 188.451 697.664 136.47C685.562 89.8721 679.036 49.081 676.044 0.0750732H674.685C677.676 49.2227 684.202 90.1554 696.304 136.895Z" fill="#444444"/>
<path d="M272.348 127.406C379.357 87.8892 480.383 50.639 565.5 50.3557C608.875 50.2141 637.157 67.7769 657.552 107.435C670.605 132.929 679.307 160.69 687.738 187.601C699.975 226.551 711.396 263.234 734.103 280.655C741.31 286.179 749.06 289.012 756.539 289.012C758.578 289.012 760.618 288.729 762.657 288.304C770.68 286.604 777.478 281.364 781.829 273.715C796.922 246.521 809.703 166.78 820.852 96.529C827.515 54.7464 833.226 18.6293 838.529 0.216709V0.0750732H837.169C832.002 18.6293 826.155 54.7464 819.493 96.3873C808.343 166.639 795.562 246.096 780.605 273.149C776.526 280.372 770.136 285.329 762.385 287.029C753.411 289.012 743.757 286.321 734.919 279.522C712.62 262.384 701.743 227.542 689.097 187.176C680.667 160.265 671.965 132.363 658.776 106.868C638.244 66.9271 609.691 49.081 566.18 49.081C565.908 49.081 565.772 49.081 565.5 49.081C480.111 49.3643 378.949 86.6145 271.805 126.131C181.52 159.415 88.2447 193.833 0.271973 207.146V208.563H0.407943C88.6526 195.249 181.928 160.69 272.348 127.406Z" fill="#444444"/>
<path d="M230.606 177.544C237.676 174.853 247.874 170.462 260.927 164.938C330.544 135.62 475.488 74.433 556.798 74.0081C557.07 74.0081 557.342 74.0081 557.614 74.0081C598.405 74.0081 624.511 88.8799 639.604 120.89C655.649 154.882 665.71 186.75 674.684 214.936C681.211 235.473 686.786 253.177 693.584 268.191C707.453 299.067 731.248 318.188 753.547 318.188C757.898 318.188 762.249 317.48 766.464 315.922C793.794 306.007 806.168 272.015 816.365 224.142C818.541 213.944 821.26 196.523 824.66 174.569C832.818 121.881 845.055 42.2817 861.236 0.499214L861.508 0.215942H860.012C843.831 42.1401 831.594 121.739 823.436 174.428C820.173 195.532 817.453 213.661 815.142 223.859C804.944 271.307 792.843 304.874 766.056 314.647C741.174 323.712 711.26 303.883 694.944 267.624C688.281 252.752 682.707 235.048 676.18 214.652C667.206 186.467 657.144 154.457 641.1 120.465C625.599 87.8884 598.133 72.3085 556.798 72.5918C475.08 73.0167 330.136 134.203 260.383 163.664C247.33 169.187 237.132 173.436 230.062 176.269C148.887 208.137 84.8455 233.207 0.271973 246.237V247.653H0.407943C85.1174 234.481 149.295 209.27 230.606 177.544Z" fill="#444444"/>
<path d="M913.448 606.842C880.271 609.958 847.638 623.555 826.019 643.101C777.342 687.15 756.946 758.534 758.17 809.664C758.578 823.97 761.977 833.034 767.416 834.026C767.688 834.026 767.96 834.167 768.368 834.167C773.943 834.167 780.061 825.669 785.092 810.656C792.298 789.552 811.47 733.464 852.805 693.665C875.376 671.853 901.89 661.089 923.238 652.59C942.138 644.942 957.094 638.852 962.261 628.087C964.029 624.405 963.893 621.006 961.989 618.173C955.327 607.834 929.085 605.284 913.448 606.842ZM961.038 627.238C956.143 637.577 941.322 643.526 922.694 651.032C901.347 659.672 874.696 670.437 851.853 692.39C810.382 732.473 791.075 788.844 783.868 809.948C778.837 824.819 772.719 833.318 767.688 832.468C763.065 831.76 759.938 822.978 759.666 809.523C758.306 758.676 778.701 687.716 826.971 644.092C848.318 624.688 880.815 611.374 913.584 608.258C916.303 607.975 919.295 607.834 922.286 607.834C937.515 607.834 955.735 611.091 960.766 618.74C962.397 621.147 962.533 623.98 961.038 627.238Z" fill="#444444"/>
<path d="M1325.71 0.0750732H1320L1322.58 0.783252C1333.87 3.61597 1346.38 6.16541 1359.84 8.57321H1359.97V7.15686C1347.74 5.03232 1336.18 2.62452 1325.71 0.0750732Z" fill="#444444"/>
<path d="M100.754 956.682L101.026 956.399C151.335 921.981 227.206 869.859 262.287 760.8C269.221 739.413 268.405 721.567 259.839 708.112C249.234 691.115 227.07 680.917 194.03 677.801C144.672 672.986 127.676 690.549 101.978 722.133C86.7491 740.688 75.0556 762.783 63.6341 784.312C53.5723 803.149 43.2386 822.695 30.3214 840.258C21.3474 852.438 12.1014 863.061 3.26332 873.259L0.271973 876.658V878.783L0.815854 878.216L4.35108 874.25C13.3251 864.052 22.5711 853.43 31.5451 841.249C44.4623 823.545 54.932 803.999 64.9938 785.161C76.8232 762.783 88.1088 741.679 103.201 723.267C128.628 692.107 145.488 674.686 194.166 679.359C226.798 682.475 248.69 692.532 259.023 709.103C267.318 722.275 267.997 739.555 261.199 760.658C226.391 869.293 150.655 921.132 100.482 955.549L100.21 955.832C79.6786 969.854 32.4969 985.293 0.679883 976.37L0.271973 976.086V977.503C6.79855 979.344 14.005 980.052 21.6193 980.052C50.8529 980.052 84.3016 968.013 100.754 956.682Z" fill="#444444"/>
<path d="M67.0333 946.626C65.4017 946.626 63.77 946.484 62.2744 946.059C58.0593 944.926 54.796 941.952 52.7564 937.42C45.9579 922.69 61.4585 900.594 71.6563 885.864C73.288 883.598 74.7836 881.474 75.8714 879.632C101.978 839.974 114.487 809.806 125.636 783.178C131.891 768.023 137.874 753.577 145.488 739.98C151.199 729.782 158.677 723.267 167.379 721C175.13 719.017 183.424 720.717 191.446 725.958C208.306 736.864 213.337 760.8 212.521 778.08C211.57 798.05 201.78 816.038 192.398 831.051C166.971 871.559 133.251 907.535 95.0432 935.012C89.7403 938.694 77.503 946.626 67.0333 946.626ZM173.906 721.567C171.866 721.567 169.827 721.85 167.787 722.275C159.493 724.4 152.287 730.773 146.712 740.546C139.098 754.143 133.251 768.448 126.86 783.603C115.711 810.372 103.201 840.541 77.0951 880.199C75.8714 882.04 74.3757 884.165 72.7441 886.431C62.6823 900.736 47.5896 922.406 53.9802 936.428C55.8838 940.677 58.8751 943.227 62.6823 944.36C73.4239 947.334 88.2447 937.845 94.2274 933.595C132.299 906.118 165.884 870.426 191.31 830.06C200.692 815.188 210.346 797.342 211.298 777.796C212.114 760.942 207.219 737.572 190.902 726.949C185.191 723.408 179.481 721.567 173.906 721.567Z" fill="#444444"/>
<path d="M1359.97 977.503C1346.11 973.395 1323.67 960.507 1318.91 941.669C1316.06 930.338 1320 919.007 1330.74 907.676C1332.78 905.552 1334.68 903.427 1336.72 901.445C1344.34 893.371 1352.22 885.156 1359.97 876.658V878.783C1352.22 887.423 1345.43 894.363 1337.68 902.436C1335.64 904.56 1333.73 906.543 1331.69 908.668C1321.36 919.574 1317.42 930.621 1320.13 941.244C1324.76 959.373 1346.79 972.121 1359.84 975.945V977.503H1359.97Z" fill="#444444"/>
<path d="M1687.53 251.336C1716.76 232.924 1744.5 215.502 1768.7 203.038C1872.99 149.359 1918 170.746 1937.3 198.223C1965.04 237.739 1954.3 302.467 1936.62 409.685C1935.13 418.608 1933.63 427.673 1932.14 437.162C1931.73 439.287 1931.32 441.836 1930.91 444.811C1924.66 481.069 1908.21 577.098 1938.39 594.095C1940.16 595.086 1941.93 595.653 1943.7 595.653C1944.92 595.653 1946.14 595.369 1947.37 594.944C1960.28 589.846 1971.57 557.269 1984.62 519.594C2001.21 471.58 2021.74 411.951 2053.02 390.281C2067.7 380.083 2094.89 373.001 2121.14 366.061C2128.48 364.078 2135.96 362.095 2143.03 360.112C2158.26 355.863 2180.42 348.073 2198.1 330.369C2212.37 316.205 2225.7 300.201 2237.53 286.037C2246.37 275.556 2254.66 265.641 2262 257.852L2267.17 252.469C2299.8 218.618 2325.5 191.849 2352.97 175.844C2396.34 150.633 2430.47 142.277 2488.26 142.702C2491.66 142.702 2495.87 142.843 2500.77 142.985C2533.26 143.835 2593.63 145.393 2608.86 125.989C2612.26 121.74 2613.21 116.641 2611.85 110.834C2602.88 71.3173 2508.11 72.4504 2457.26 73.0169C2439.58 73.1586 2422.58 74.2917 2407.76 75.1415C2372.82 77.266 2345.35 78.9656 2333.66 68.6262C2322.78 58.995 2327.95 43.6983 2332.03 31.376C2334.75 23.3028 2337.06 16.221 2334.47 12.2552C2328.36 2.76563 2312.17 3.33218 2292.19 13.8132C2244.87 38.4578 2233.86 110.125 2223.25 179.385C2220.94 194.115 2218.63 209.412 2215.91 223.717C2200.41 306.999 2181.37 339.292 2105.09 354.589C2056.55 364.22 2023.78 383.907 2002.03 416.2C2000.26 418.891 1998.36 421.866 1996.59 424.84C1989.38 436.879 1981.9 449.201 1973.2 444.386C1960.01 436.879 1966.95 384.332 1970.62 356.147C1971.3 351.331 1971.84 347.365 1972.11 344.108C1972.52 340 1973.07 335.893 1973.61 331.785C1977.82 295.385 1982.31 257.71 1974.83 221.026C1967.76 186.325 1952.94 161.964 1930.51 148.65C1899.78 130.379 1855.31 131.937 1794.54 153.324C1734.44 174.428 1679.64 208.279 1626.61 240.997C1610.02 251.195 1592.89 261.817 1575.9 271.732C1511.17 309.832 1440.61 333.485 1360.25 344.249V345.666H1360.38C1441.01 334.901 1511.72 311.107 1576.58 273.007C1593.57 262.95 1610.7 252.469 1627.29 242.13C1680.32 209.412 1735.12 175.703 1794.94 154.599C1855.45 133.354 1899.51 131.796 1929.83 149.783C1951.85 162.956 1966.67 187.034 1973.61 221.309C1980.95 257.852 1976.6 295.385 1972.39 331.644C1971.84 335.751 1971.43 339.859 1970.89 343.966C1970.48 347.224 1969.94 351.331 1969.39 356.005C1965.31 386.598 1958.65 437.729 1972.66 445.66C1982.58 451.184 1990.33 438.295 1997.95 425.69C1999.85 422.574 2001.48 419.741 2003.25 417.192C2024.73 385.182 2057.23 365.778 2105.5 356.147C2182.6 340.708 2201.77 308.274 2217.4 224.142C2220.12 209.837 2222.43 194.54 2224.75 179.81C2235.35 110.834 2246.37 39.5909 2293 15.3712C2312.45 5.31508 2327.95 4.46526 2333.66 13.3883C2335.83 16.7876 2333.66 23.4444 2331.07 31.2344C2326.86 43.9816 2321.56 59.8448 2333.11 70.0426C2345.22 80.6653 2371.59 79.1073 2408.17 76.9827C2423.13 76.1329 2439.99 74.9998 2457.66 74.8582C2508.11 74.2917 2602.2 73.1586 2610.9 111.542C2612.13 116.924 2611.17 121.598 2608.18 125.564C2593.36 144.543 2533.4 142.985 2501.17 142.135C2496.28 141.994 2492.06 141.852 2488.66 141.852C2487.3 141.852 2486.08 141.852 2484.86 141.852C2429.11 141.852 2395.39 150.492 2352.69 175.136C2325.09 191.141 2299.26 218.052 2266.62 252.044L2261.46 257.427C2253.98 265.217 2245.69 275.131 2236.98 285.612C2225.15 299.776 2211.83 315.781 2197.69 329.802C2180.15 347.224 2158.12 354.872 2143.16 359.121C2136.23 361.104 2128.61 363.087 2121.27 365.07C2094.89 372.01 2067.7 379.092 2052.74 389.431C2021.06 411.385 2000.4 471.297 1983.81 519.453C1970.89 556.844 1959.74 589.137 1947.37 593.953C1944.78 594.944 1942.2 594.803 1939.48 593.245C1910.25 576.815 1926.56 481.353 1932.68 445.519C1933.23 442.544 1933.63 439.995 1934.04 437.871C1935.54 428.381 1937.17 419.316 1938.53 410.393C1956.34 302.75 1967.08 237.881 1939.07 197.798C1919.49 169.896 1873.94 148.084 1768.84 202.189C1744.63 214.653 1716.9 232.074 1687.53 250.486C1598.74 306.291 1488.06 375.834 1360.65 385.182V386.598C1487.92 376.826 1598.6 307.282 1687.53 251.336Z" fill="#444444"/>
<path d="M1619.95 205.73C1639.39 195.674 1659.65 185.334 1681.68 174.287C1843.62 93.8376 1905.35 99.7863 1941.25 113.95C1986.39 131.796 2007.74 179.386 2004.75 255.302C2003.79 280.372 1999.99 303.6 1997 322.296C1992.37 351.331 1989.25 370.594 1999.17 375.409C1999.99 375.834 2000.94 375.976 2001.89 375.976C2005.43 375.976 2009.78 373.426 2016.03 369.602C2024.73 364.362 2036.56 357.28 2054.92 351.331C2072.73 345.666 2085.92 342.975 2098.84 340.567C2110.53 338.301 2121.54 336.035 2135.41 331.786C2184.77 316.489 2193.47 241.422 2201.9 168.763C2205.3 139.444 2208.84 109.276 2214.96 83.0733C2222.43 51.0636 2230.46 25.1443 2245.28 2.76585C2245.82 1.91604 2246.37 1.06623 2246.91 0.216411L2247.18 -0.208496H2245.55C2245.14 0.499682 2244.6 1.20786 2244.19 1.91604C2229.23 24.5777 2221.21 50.6387 2213.6 82.79C2207.48 108.993 2203.94 139.303 2200.54 168.621C2192.11 240.855 2183.55 315.497 2135.01 330.369C2121.14 334.618 2110.12 336.743 2098.57 339.151C2085.65 341.7 2072.46 344.249 2054.51 350.057C2036.02 356.005 2024.05 363.229 2015.35 368.469C2007.74 373.002 2003.11 375.834 1999.71 374.135C1990.74 369.744 1993.87 349.915 1998.22 322.579C2001.21 303.883 2005.02 280.655 2005.97 255.444C2008.96 178.819 1987.34 130.663 1941.66 112.675C1905.62 98.3699 1843.35 92.4212 1681 173.012C1658.97 183.918 1638.71 194.399 1619.27 204.455C1528.17 251.336 1462.5 285.187 1359.84 295.385V296.802C1462.9 286.604 1528.85 252.611 1619.95 205.73Z" fill="#444444"/>
<path d="M1514.03 391.131C1554.96 374.418 1595.88 351.614 1639.12 321.446C1644.7 317.622 1650.82 313.231 1657.34 308.699C1723.29 261.959 1833.7 183.918 1887.27 204.172C1949.68 227.825 1932.68 311.39 1901.82 462.94L1900.86 467.897C1882.51 558.403 1876.8 619.164 1883.6 653.865C1887.68 674.402 1896.38 688.141 1908.34 692.248C1910.93 693.24 1913.65 693.665 1916.37 693.665C1923.44 693.665 1930.51 690.69 1936.9 684.883C1966.81 657.689 1979.18 613.357 1992.1 566.334L1992.92 563.36C2011.27 496.791 2033.71 442.12 2051.25 420.591C2069.88 397.788 2097.34 389.29 2123.86 382.633C2130.38 380.933 2136.64 379.517 2142.62 378.1C2184.77 367.903 2215.36 360.537 2245.28 330.227C2260.37 314.931 2273.7 299.634 2286.61 284.904C2331.35 233.774 2370.1 189.442 2453.04 177.544C2481.46 173.437 2508.24 173.295 2534.21 173.295C2569.16 173.153 2602.06 173.012 2635.65 163.381C2654.41 157.998 2666.24 149.784 2671.68 138.594C2677.8 125.989 2675.76 109.276 2666.24 95.8203C2658.9 85.4809 2648.02 77.2661 2631.7 69.7594C2605.6 57.7203 2577.18 52.1965 2549.71 46.8144L2442.16 25.569C2426.66 22.453 2411.16 17.0709 2398.38 10.2724C2393.08 7.43966 2389 4.18204 2386.41 0.499512H2384.78L2385.05 0.924419C2387.77 4.89022 2392.13 8.57275 2397.84 11.5471C2410.75 18.4872 2426.39 23.8694 2442.03 26.9854L2549.58 48.2307C2576.91 53.6129 2605.33 59.2783 2631.3 71.1757C2647.34 78.5408 2658.08 86.614 2665.29 96.8118C2674.4 109.701 2676.44 125.847 2670.59 138.028C2665.29 148.934 2653.73 156.865 2635.38 162.106C2601.93 171.737 2569.02 171.879 2534.21 172.02C2508.24 172.162 2481.46 172.162 2452.9 176.411C2369.42 188.45 2330.67 232.924 2285.66 284.337C2272.74 299.068 2259.42 314.364 2244.33 329.661C2214.68 359.688 2184.36 367.053 2142.35 377.109C2136.37 378.525 2130.11 380.083 2123.58 381.641C2096.93 388.298 2069.2 396.796 2050.3 420.024C2032.62 441.695 2010.18 496.649 1991.69 563.36L1990.88 566.334C1977.96 613.216 1965.72 657.406 1936.08 684.175C1927.65 691.823 1917.72 694.373 1908.75 691.257C1897.33 687.149 1888.76 673.977 1884.82 653.865C1878.16 619.448 1883.73 558.828 1902.09 468.464L1903.04 463.507C1934.04 311.107 1951.17 227.117 1887.54 203.039C1833.29 182.501 1722.61 260.826 1656.39 307.707C1649.86 312.381 1643.74 316.63 1638.17 320.455C1541.77 387.732 1453.39 420.733 1359.84 424.274V425.69C1411.37 423.565 1463.18 411.951 1514.03 391.131Z" fill="#444444"/>
<path d="M2719.54 207.146C2687.45 211.962 2633.47 211.395 2565.08 210.546C2552.57 210.404 2539.79 210.262 2526.6 210.121C2476.56 209.696 2429.52 220.46 2397.43 239.581C2370.51 255.586 2346.03 279.947 2322.37 303.6C2299.53 326.404 2275.87 350.057 2250.17 365.637C2223.52 381.925 2192.93 388.298 2163.29 394.53C2123.58 402.887 2086.06 410.818 2060.09 440.704C2032.76 472.288 2019.02 524.41 2004.34 579.648C1998.76 600.893 1992.92 622.847 1986.25 643.384C1973.07 684.317 1945.87 740.546 1919.63 768.59C1903.45 785.87 1886.72 794.509 1872.86 792.668C1863.07 791.393 1854.64 785.02 1848.65 774.255C1827.44 736.156 1849.33 614.066 1870.54 495.941C1871.9 488.718 1874.35 477.812 1877.21 465.065C1890.8 405.295 1916.23 293.969 1888.08 254.594C1880.06 243.405 1869.05 237.031 1855.18 235.332C1814.66 230.516 1754.97 269.041 1716.22 303.317C1712.55 306.575 1708.74 309.974 1705.07 313.373C1658.02 355.58 1604.72 403.312 1507.37 422.149C1439.65 435.321 1386.08 455.15 1360.11 465.915V467.473L1360.38 467.331C1386.22 456.567 1439.79 436.738 1507.64 423.566C1605.4 404.586 1658.84 356.714 1706.02 314.506C1709.83 311.107 1713.5 307.849 1717.17 304.592C1755.65 270.457 1814.93 232.216 1855.18 236.89C1868.64 238.448 1879.38 244.68 1887.13 255.586C1915.01 294.394 1889.58 405.295 1875.98 464.923C1873.13 477.529 1870.54 488.576 1869.32 495.8C1848.11 614.207 1826.08 736.58 1847.7 775.105C1853.96 786.295 1862.66 792.951 1872.99 794.226C1874.22 794.368 1875.57 794.509 1876.93 794.509C1890.4 794.509 1905.9 785.87 1920.99 769.723C1947.5 741.538 1974.7 685.025 1988.02 643.951C1994.68 623.272 2000.53 601.318 2006.11 580.073C2020.65 524.977 2034.52 472.996 2061.58 441.695C2087.28 412.093 2124.54 404.161 2163.97 395.947C2193.75 389.715 2224.47 383.199 2251.26 366.911C2277.09 351.19 2300.75 327.537 2323.73 304.592C2347.26 281.08 2371.59 256.719 2398.52 240.856C2430.47 221.876 2477.38 211.112 2527.01 211.679C2540.2 211.82 2552.98 211.962 2565.49 212.103C2633.88 212.953 2687.86 213.52 2720.09 208.704L2719.54 207.146Z" fill="#444444"/>
<path d="M2719.54 246.238C2674.67 253.178 2630.62 254.452 2583.98 255.869C2566.03 256.435 2547.54 257.002 2528.64 257.852C2478.6 260.259 2437.4 271.307 2406.13 290.711C2377.85 308.274 2357.18 327.678 2337.06 346.374C2314.49 367.478 2293 387.448 2265.27 399.204C2242.42 408.835 2216.18 413.651 2190.62 418.467C2143.3 427.248 2094.49 436.454 2068.65 475.971C2051.25 502.598 2037.38 546.222 2019.7 601.318C2011 628.654 2001.07 659.814 1989.38 692.673C1974.7 734.314 1950.9 782.754 1926.02 822.128C1886.18 885.015 1852.32 911.925 1822.41 904.135C1764.62 889.122 1797.12 719.867 1809.36 656.273C1810.85 648.341 1812.08 641.968 1812.76 637.719C1818.33 603.726 1828.26 563.643 1838.73 521.011C1858.31 441.553 1878.57 359.263 1871.77 311.248C1868.91 290.853 1858.85 276.406 1843.49 270.174C1817.92 259.976 1780.94 273.998 1739.47 309.832C1718.66 327.82 1702.89 345.949 1687.66 363.654C1663.6 391.556 1640.75 417.9 1602.82 436.313C1577.66 448.493 1544.08 452.176 1511.45 455.858C1490.1 458.266 1469.97 460.391 1452.03 464.923C1410.83 475.121 1376.56 495.8 1359.7 507.272V508.972L1360.11 508.688C1376.84 497.216 1411.1 476.396 1452.3 466.198C1470.25 461.807 1490.37 459.541 1511.58 457.275C1544.21 453.734 1578.07 449.91 1603.36 437.587C1641.57 419.033 1664.41 392.547 1688.62 364.503C1703.84 346.941 1719.62 328.67 1740.28 310.823C1781.35 275.414 1817.79 261.393 1842.94 271.449C1857.76 277.397 1867.55 291.561 1870.27 311.39C1877.07 359.263 1856.81 441.27 1837.23 520.586C1826.76 563.077 1816.84 603.301 1811.26 637.294C1810.58 641.543 1809.36 647.775 1807.86 655.706C1795.49 719.726 1762.72 889.972 1821.87 905.268C1825.4 906.26 1829.07 906.685 1832.61 906.685C1845.8 906.685 1859.39 900.594 1874.08 888.272C1890.53 874.392 1907.8 853.005 1926.97 822.695C1951.99 783.178 1975.78 734.739 1990.47 692.957C2002.16 660.097 2011.95 629.079 2020.79 601.602C2038.33 546.505 2052.2 503.023 2069.47 476.537C2095.03 437.446 2141.4 428.806 2190.48 419.6C2216.04 414.784 2242.42 409.968 2265.4 400.337C2293.41 388.581 2314.89 368.469 2337.6 347.224C2357.59 328.528 2378.26 309.265 2406.4 291.703C2437.4 272.44 2478.33 261.393 2528.23 258.985C2547.13 258.135 2565.76 257.568 2583.57 257.002C2630.21 255.585 2674.26 254.311 2719.13 247.371L2719.54 246.238Z" fill="#444444"/>
<path d="M2719.68 295.385C2621.1 305.158 2589.28 306.858 2561.27 308.274C2552.71 308.699 2544.55 309.124 2535.03 309.832C2501.04 312.098 2478.6 313.94 2447.19 324.279C2408.71 336.885 2388.18 357.139 2350.79 393.964C2345.49 399.204 2339.78 404.87 2333.66 410.818C2295.59 447.927 2249.36 451.468 2204.62 454.867C2153.63 458.833 2105.36 462.516 2079.67 518.603C2065.12 550.471 2054.92 585.739 2044.18 623.13C2026.5 684.459 2006.51 754.002 1960.96 831.052C1901.68 931.188 1850.15 972.404 1798.75 960.79C1730.49 945.352 1754.56 813.205 1767.61 742.246C1768.84 735.589 1769.93 729.357 1770.88 723.833C1774.41 702.871 1782.57 671.428 1791.95 635.169C1812.62 554.72 1838.32 454.726 1839.41 380.792C1839.81 347.932 1829.34 322.013 1812.08 312.948C1802.15 307.849 1785.43 305.725 1761.77 324.846C1742.19 340.709 1727.23 364.504 1711.32 389.715C1683.31 434.188 1654.22 480.078 1596.97 488.01C1575.08 490.984 1554.82 491.409 1535.38 491.692C1481.94 492.542 1431.36 493.25 1360.11 550.046V551.888L1360.52 551.604C1431.77 494.808 1482.08 493.959 1535.38 493.25C1554.96 492.967 1575.22 492.684 1597.24 489.568C1655.03 481.495 1684.26 435.321 1712.55 390.565C1728.45 365.495 1743.41 341.7 1762.72 325.979C1780.94 311.107 1797.8 307.141 1811.53 314.223C1828.39 323.004 1838.59 348.499 1838.05 380.792C1836.96 454.442 1811.26 554.437 1790.59 634.745C1781.21 671.145 1773.19 702.588 1769.52 723.55C1768.57 728.932 1767.48 735.306 1766.25 741.963C1753.2 813.347 1728.86 946.343 1798.48 962.065C1803.92 963.339 1809.49 963.906 1815.07 963.906C1838.32 963.906 1862.11 953.142 1886.04 931.613C1910.25 909.943 1935.13 877.225 1962.19 831.618C2007.87 754.285 2028 684.742 2045.54 623.272C2056.28 586.022 2066.34 550.755 2080.89 519.028C2106.32 463.649 2154.04 459.966 2204.62 456C2249.63 452.601 2295.99 449.06 2334.47 411.527C2340.59 405.578 2346.3 399.913 2351.61 394.672C2388.86 357.988 2409.39 337.734 2447.47 325.271C2478.74 315.073 2501.04 313.09 2535.03 310.965C2544.55 310.399 2552.71 309.974 2561.27 309.407C2589.28 307.991 2621.1 306.291 2719.68 296.518V295.385Z" fill="#444444"/>
<path d="M1723.83 860.654C1729.54 812.497 1736.61 752.444 1759.73 680.918C1760.41 678.793 1761.22 676.386 1762.18 673.411C1771.29 645.651 1792.5 580.64 1804.6 519.595C1819.69 443.537 1815.88 398.213 1793.31 384.899C1754.97 362.238 1718.94 425.549 1697.45 463.366C1692.69 471.58 1688.62 478.804 1685.35 483.619C1656.39 526.393 1624.85 537.016 1560.4 525.544C1521.78 518.745 1489.69 520.161 1459.51 530.359C1423.75 542.257 1391.25 566.193 1360.11 603.443V605.568L1360.66 605.001C1433.54 517.329 1505.6 517.187 1560.26 526.96C1594.39 533.05 1619.41 532.484 1638.99 525.402C1657.21 518.745 1672.03 506.14 1686.58 484.469C1689.84 479.512 1693.92 472.43 1698.68 464.074C1719.89 426.682 1755.51 364.221 1792.63 386.174C1827.03 406.57 1816.43 503.024 1760.95 672.986C1760 675.819 1759.18 678.368 1758.5 680.493C1735.39 752.302 1728.32 812.356 1722.61 860.512C1715.67 919.857 1710.51 962.631 1680.59 991.1L1679.91 991.667H1681.95C1711.73 962.773 1716.9 919.857 1723.83 860.654Z" fill="#444444"/>
<path d="M1700.58 860.653C1706.97 810.656 1719.75 764.199 1733.21 715.193C1749.67 655.423 1766.66 593.528 1772.51 521.436C1773.87 504.723 1774.82 487.018 1770.06 470.164C1768.7 465.49 1764.76 454.442 1755.78 453.451C1745.86 452.318 1739.6 463.79 1735.8 472.571C1718.26 512.229 1696.09 539.99 1669.72 555.003C1644.43 569.45 1612.34 561.519 1581.34 554.012C1572.36 551.746 1563.79 549.763 1555.5 548.205C1473.24 533.05 1440.47 566.476 1402.53 605.142C1385.81 622.28 1363.78 649.616 1360.11 654.148V656.415L1360.66 655.706C1360.93 655.423 1385.27 624.688 1403.49 606.134C1441.15 567.751 1473.65 534.608 1555.23 549.621C1563.52 551.179 1572.09 553.304 1581.06 555.428C1612.34 563.077 1644.7 571.008 1670.4 556.278C1696.91 541.123 1719.34 513.221 1737.02 473.138C1740.69 464.781 1746.67 453.876 1755.65 454.867C1763.81 455.858 1767.61 466.198 1768.84 470.589C1773.6 487.16 1772.65 504.723 1771.29 521.294C1765.3 593.245 1748.44 654.998 1731.99 714.768C1718.53 763.916 1705.75 810.373 1699.36 860.512C1690.66 929.063 1670.53 968.013 1632.32 990.958L1631.37 991.525H1634.09C1671.89 968.296 1691.88 929.063 1700.58 860.653Z" fill="#444444"/>
<path d="M1687.66 800.175C1692.83 777.938 1698 754.993 1704.66 731.765C1707.11 723.125 1709.42 714.91 1711.73 706.837C1730.77 640.268 1743.41 596.361 1732.4 576.107C1724.38 561.094 1714.31 566.901 1699.22 575.541C1683.99 584.322 1663.19 596.361 1632.46 594.237C1616.55 593.103 1600.78 588.429 1584.05 583.472C1547.89 572.708 1510.49 561.519 1469.02 586.022C1419.8 614.915 1370.72 694.798 1359.84 713.211V716.043L1360.38 714.91C1369.9 698.764 1419.67 616.615 1469.57 587.296C1510.63 563.218 1547.75 574.266 1583.65 584.889C1600.51 589.846 1616.41 594.661 1632.32 595.795C1663.32 597.919 1684.4 585.88 1699.76 576.957C1714.59 568.459 1723.56 563.218 1731.04 576.957C1741.64 596.786 1729.13 640.41 1710.23 706.554C1707.92 714.485 1705.61 722.842 1703.16 731.482C1696.64 754.71 1691.33 777.796 1686.17 799.892C1667 883.173 1650.41 954.983 1577.8 990.958L1576.17 991.666H1579.57C1651.9 955.124 1668.49 883.315 1687.66 800.175Z" fill="#444444"/>
<path d="M1614.92 916.033C1633.95 882.607 1645.78 840.116 1657.75 786.295C1662.51 765.049 1667.4 746.07 1671.89 729.357C1682.77 687.858 1689.97 660.381 1680.05 646.925C1673.11 637.577 1666.86 637.577 1654.21 637.577C1640.21 637.577 1619.27 637.577 1581.06 625.396C1539.86 612.224 1514.71 611.658 1484.66 623.697C1435.3 643.384 1381.32 740.688 1359.84 782.895V785.87L1360.38 784.737C1381.46 743.237 1435.57 644.659 1485.07 624.972C1514.71 613.216 1539.73 613.641 1580.52 626.813C1618.86 639.135 1640.07 639.135 1654.08 638.994C1666.59 638.994 1672.3 638.993 1678.83 647.775C1688.34 660.664 1681.14 687.858 1670.39 728.932C1666.04 745.645 1661.01 764.624 1656.25 786.011C1630.83 900.311 1606.08 957.107 1526.95 990.958L1525.31 991.666H1528.99C1567.87 974.67 1595.2 950.592 1614.92 916.033Z" fill="#444444"/>
<path d="M1527.63 0.783252L1529.26 0.0750732H1525.45C1481.4 17.7795 1389.62 12.3974 1360.11 7.15686H1359.97V8.57321C1374.25 11.1227 1402.81 13.6721 1433.53 13.6721C1467.66 13.5305 1504.65 10.4145 1527.63 0.783252Z" fill="#444444"/>
<path d="M1578.48 0.641616L1579.84 0.0750732H1576.58C1496.62 39.3082 1385.67 25.9944 1360.11 20.329H1359.97V21.7453C1371.8 24.4364 1401.58 28.5438 1438.16 28.5438C1481.67 28.5438 1534.83 22.5951 1578.48 0.641616Z" fill="#444444"/>
<path d="M1632.87 0.641616L1633.95 0.0750732H1631.24C1542.31 57.7208 1405.39 44.1238 1360.11 34.0676H1359.97V35.484C1379.01 39.7331 1413.68 44.5487 1454.34 44.5487C1511.72 44.5487 1580.65 34.9175 1632.87 0.641616Z" fill="#444444"/>
<path d="M1681.27 0.641616L1681.82 0.0750732H1679.78C1584.46 92.2799 1411.1 63.3862 1360.11 52.197H1359.97V53.6134C1382.41 58.429 1428.37 66.7855 1480.99 66.7855C1548.84 66.7855 1627.56 53.0468 1681.27 0.641616Z" fill="#444444"/>
<path d="M1632.05 127.406C1739.06 87.8892 1840.09 50.639 1925.2 50.3557C1968.58 50.2141 1996.86 67.7769 2017.26 107.435C2030.31 132.929 2039.01 160.69 2047.44 187.601C2059.68 226.551 2071.1 263.234 2093.81 280.655C2101.01 286.179 2108.76 289.012 2116.24 289.012C2118.28 289.012 2120.32 288.729 2122.36 288.304C2130.38 286.604 2137.18 281.364 2141.53 273.715C2156.63 246.521 2169.41 166.78 2180.56 96.529C2187.22 54.7464 2192.93 18.6293 2198.23 0.216709V0.0750732H2196.87C2191.71 18.6293 2185.86 54.7464 2179.2 96.3873C2168.05 166.639 2155.27 246.096 2140.31 273.149C2136.23 280.372 2129.84 285.329 2122.09 287.029C2113.11 289.012 2103.46 286.321 2094.62 279.522C2072.32 262.384 2061.45 227.542 2048.8 187.176C2040.37 160.265 2031.67 132.363 2018.48 106.868C1997.95 66.9271 1969.39 49.081 1925.88 49.081C1925.61 49.081 1925.48 49.081 1925.2 49.081C1839.95 49.5059 1738.65 86.7561 1631.64 126.272C1541.36 159.557 1448.08 193.974 1360.11 207.288V208.704H1360.25C1448.36 195.249 1541.63 160.69 1632.05 127.406Z" fill="#444444"/>
<path d="M1590.31 177.544C1597.38 174.853 1607.58 170.462 1620.63 164.938C1690.25 135.62 1835.19 74.433 1916.5 74.0081C1916.77 74.0081 1917.05 74.0081 1917.32 74.0081C1958.11 74.0081 1984.21 88.8799 1999.31 120.89C2015.35 154.882 2025.41 186.75 2034.39 214.936C2040.91 235.473 2046.49 253.177 2053.29 268.191C2067.16 299.067 2090.95 318.188 2113.25 318.188C2117.6 318.188 2121.95 317.48 2126.17 315.922C2153.5 306.007 2165.87 272.015 2176.07 224.142C2178.24 213.944 2180.96 196.523 2184.36 174.569C2192.52 121.881 2204.76 42.2817 2220.94 0.499214L2221.21 0.215942H2219.72C2203.53 42.1401 2191.3 121.739 2183.14 174.428C2179.88 195.532 2177.16 213.661 2174.85 223.859C2164.65 271.307 2152.55 304.874 2125.76 314.647C2100.88 323.712 2070.96 303.883 2054.65 267.624C2047.98 252.752 2042.41 235.048 2035.88 214.652C2026.91 186.467 2016.85 154.457 2000.8 120.465C1985.57 88.1717 1958.11 72.5918 1916.77 72.8751C1835.06 73.3 1690.11 134.487 1620.36 163.947C1607.31 169.471 1597.11 173.72 1590.04 176.552C1508.86 208.42 1444.82 233.49 1360.25 246.52V247.937H1360.38C1444.82 234.481 1509 209.27 1590.31 177.544Z" fill="#444444"/>
<path d="M1460.46 956.682L1460.73 956.399C1511.04 921.981 1586.91 869.859 1621.99 760.8C1628.92 739.413 1628.11 721.567 1619.54 708.112C1608.94 691.115 1586.77 680.917 1553.73 677.801C1504.38 672.986 1487.38 690.549 1461.68 722.133C1446.45 740.688 1434.76 762.783 1423.34 784.312C1413.27 803.149 1402.94 822.695 1390.02 840.258C1381.05 852.438 1371.8 863.061 1362.97 873.259L1359.97 876.658V878.783L1360.52 878.216L1364.05 874.25C1373.03 864.052 1382.27 853.43 1391.25 841.249C1404.16 823.545 1414.63 803.999 1424.7 785.161C1436.53 762.783 1447.81 741.679 1462.9 723.267C1488.33 692.107 1505.19 674.686 1553.87 679.359C1586.5 682.475 1608.39 692.532 1618.73 709.103C1627.02 722.275 1627.7 739.555 1620.9 760.658C1586.09 869.293 1510.36 921.132 1460.18 955.549L1459.91 955.832C1439.38 969.854 1392.2 985.293 1360.38 976.37L1360.11 976.228V977.644C1366.64 979.486 1373.84 980.194 1381.46 980.194C1410.56 980.052 1444 968.013 1460.46 956.682Z" fill="#444444"/>
<path d="M1426.74 946.626C1425.1 946.626 1423.47 946.484 1421.98 946.059C1417.76 944.926 1414.5 941.952 1412.46 937.42C1405.66 922.69 1421.16 900.594 1431.36 885.864C1432.99 883.598 1434.49 881.474 1435.57 879.632C1461.54 840.116 1474.19 809.806 1485.2 783.178C1491.46 768.023 1497.44 753.577 1505.06 739.98C1510.77 729.782 1518.24 723.267 1526.95 721C1534.7 719.017 1542.99 720.717 1551.01 725.958C1567.87 736.864 1572.9 760.8 1572.09 778.08C1571.14 798.05 1561.35 816.038 1551.97 831.051C1526.54 871.559 1492.82 907.535 1454.61 935.012C1449.44 938.694 1437.21 946.626 1426.74 946.626ZM1533.61 721.567C1531.57 721.567 1529.53 721.85 1527.49 722.275C1519.2 724.4 1511.99 730.773 1506.41 740.546C1498.8 754.143 1492.95 768.448 1486.56 783.603C1475.41 810.372 1462.9 840.541 1436.8 880.199C1435.57 882.04 1434.08 884.165 1432.45 886.431C1422.39 900.736 1407.29 922.406 1413.68 936.428C1415.59 940.677 1418.58 943.227 1422.39 944.36C1433.13 947.334 1447.95 937.845 1453.93 933.595C1492 906.118 1525.59 870.426 1551.01 830.06C1560.4 815.188 1570.05 797.342 1571 777.796C1571.82 760.942 1566.92 737.572 1550.61 726.949C1544.89 723.408 1539.18 721.567 1533.61 721.567Z" fill="#444444"/>
</g>
</g>
</g>
<defs>
<clipPath id="clip0_549_97">
<rect width="1600" height="950" fill="white"/>
</clipPath>
</defs>
</svg>
